<svg width="32" height="31" viewBox="0 0 32 31" fill="none" xmlns="http://www.w3.org/2000/svg">
<path d="M7.61925 16.5928L8.46584 10.232L1.12267 5.13437L7.83203 7.40704L9.41656 4.97592L15.2024 1.38582L27.9556 8.41209L28.6166 19.1326L22.9349 27.0281L18.4439 27.7162L20.7663 23.4651V19.3725L19.0777 16.1763L17.3619 15.04L14.7225 17.7608V20.6402L12.6626 22.5688L10.0458 22.8857L8.88687 23.5421L6.98543 22.9355L6.19317 20.0833L7.61925 18.0777V16.5928Z" fill="white"/>
<path d="M19.3448 5.07997C17.9459 4.79023 16.4157 4.86719 16.4157 4.86719C16.4157 4.86719 15.9132 7.18966 12.7984 7.80084C12.8211 7.80084 16.9137 9.19975 19.3448 5.07997Z" fill="#94A6C3"/>
<path d="M20.6124 26.1543C22.3011 24.8324 23.5687 23.0124 24.1527 20.9525C24.1799 20.8756 24.4153 20.7397 24.5737 20.6356C24.8363 20.4772 25.1034 20.3459 25.1532 20.1331C25.2573 19.5264 25.3117 18.8926 25.3117 18.2588C25.3117 18.0234 25.0717 17.7835 24.8363 17.548C24.6507 17.3896 24.4651 17.204 24.4651 17.0727C24.2025 14.6687 23.0933 12.4232 21.3232 10.7889L21.1376 10.9745C22.8534 12.5862 23.9625 14.7774 24.2025 17.0999C24.2297 17.3126 24.4379 17.5209 24.6507 17.7337C24.8363 17.8921 25.0491 18.1321 25.0491 18.2362C25.0491 18.8428 24.9948 19.4495 24.8906 20.0561C24.8635 20.1603 24.6281 20.2689 24.4424 20.373C24.1799 20.5043 23.9399 20.6356 23.8901 20.8484C23.2563 23.0939 21.8031 25.0497 19.8745 26.3173C20.2185 25.5794 21.3005 23.1754 21.88 21.9576L21.7759 18.0506L18.4212 14.8045L16.5198 15.0671L14.4327 18.449C14.4327 18.449 15.4106 19.6894 14.0343 21.1427C12.6898 22.5687 11.6304 22.8857 11.6304 22.8857L10.6525 22.356C10.9422 21.9847 11.5263 21.4324 11.9745 21.0612C12.7396 20.4274 13.5047 20.373 13.5047 19.6894C13.5363 18.2588 12.0016 18.6527 12.0016 18.6527L11.4448 19.1824L11.2093 21.1381L10.0504 22.5914L9.91909 22.5642L8.01765 22.1432C8.01765 22.1432 9.18115 21.5365 9.36677 20.8484C9.55238 20.1874 8.99554 17.9962 8.96837 17.865C8.99554 17.8921 9.52522 18.3403 9.76064 19.0782C10.1817 17.9148 10.7385 16.8056 10.897 16.7015C11.0554 16.5973 13.1923 15.461 13.1923 15.461L12.4815 17.3353L13.0112 17.0455L14.2788 13.9308C14.2788 13.9308 15.5193 13.3241 16.4428 13.3241C18.1043 13.297 20.5626 11.2642 19.4534 7.61983C19.7703 7.75112 25.2619 10.4991 26.2126 15.8866C26.9234 20.029 24.5737 23.9088 20.6124 26.1543Z" fill="#94A6C3"/>
<path d="M14.3286 5.65948C14.9353 4.94418 14.6999 3.88934 14.6999 3.88934L12.9297 6.50607C12.9026 6.50607 13.559 6.53324 14.3286 5.65948Z" fill="#1B314F"/>
<path d="M8.38436 19.9474L8.59714 18.8925C8.59714 18.8925 7.72338 20.4228 7.64642 20.6356C7.56492 20.8755 7.70074 21.2966 8.04029 21.2694C8.38436 21.2422 8.80539 20.7397 8.80539 20.373C8.80539 19.8976 8.38436 19.9474 8.38436 19.9474Z" fill="#1B314F"/>
<path d="M24.0712 3.15141C24.0712 3.15141 25.3932 3.20574 26.7649 3.36419C23.6728 0.933069 20.7437 0.222293 18.3669 0.222293C15.0937 0.222293 12.8754 1.57141 12.7396 1.64837L13.7718 0.00951249C13.7718 0.00951249 9.652 -0.388884 8.19876 3.97084C7.82752 3.04729 7.48798 1.69817 7.48798 1.69817C7.48798 1.69817 5.3466 3.57697 6.35165 6.69171C3.89336 5.79532 0.38475 4.55033 0.248933 4.52769C0.0633163 4.50053 0.00898944 4.58202 0.00898944 4.58202C0.00898944 4.58202 -0.0453374 4.65898 0.113116 4.7948C0.407386 5.02569 5.95325 9.12284 7.17108 9.9151C6.9085 10.8658 6.9085 11.314 7.17108 11.7622C7.54231 12.3689 7.56494 12.6858 7.51514 13.134C7.46082 13.5822 6.98546 17.4665 6.88133 17.9419C6.77721 18.4173 5.66803 20.1059 5.71783 20.6084C5.77216 21.111 6.45577 23.2478 7.06695 23.4878C7.51514 23.6462 8.62432 23.9903 9.36226 23.9903C9.62484 23.9903 9.86478 23.936 9.96891 23.8318C10.4171 23.438 10.5484 23.3565 10.8653 23.3565C10.8925 23.3565 10.9196 23.3565 10.9423 23.3565C11.0736 23.3565 11.232 23.3836 11.4176 23.3836C11.8387 23.3836 12.3955 23.3021 12.7894 22.9354C13.3689 22.3559 14.3739 21.5637 14.6908 21.1924C15.0892 20.6899 15.2975 20.0063 15.1933 19.3182C15.1118 18.6844 15.4559 18.1275 15.8543 17.5752C16.3568 16.9142 17.2804 15.7281 17.2804 15.7281C19.1049 17.0953 20.2412 19.1824 20.2412 21.5048C20.2412 25.6246 16.6511 28.9521 12.2144 28.9521C11.5263 28.9521 10.8698 28.8752 10.2088 28.7167C12.2416 29.4275 13.9574 29.6674 15.3608 29.6674C18.3443 29.6674 19.9288 28.5854 19.9288 28.5854C19.9288 28.5854 19.3765 29.3007 18.4756 30.1156C18.5027 30.1156 18.5027 30.1156 18.5027 30.1156C23.442 29.4275 25.8459 25.362 25.8459 25.362C25.8459 25.362 25.6603 26.684 25.4249 27.5804C31.9939 22.6412 30.8847 16.4615 30.8576 16.2532C30.9119 16.3302 31.5729 17.1225 31.9124 17.548C32.9718 6.66455 24.0712 3.15141 24.0712 3.15141ZM13.9574 20.5315C13.8533 20.6628 13.4051 21.0612 13.0882 21.3509C12.7713 21.6406 12.4272 21.9304 12.1646 22.1975C12.0605 22.3016 11.8477 22.3559 11.5308 22.3559C11.4267 22.3559 11.318 22.3559 11.2411 22.3559C11.1867 22.3559 11.1369 22.3559 11.0826 22.3559C11.0283 22.3559 11.0011 22.3559 10.9785 22.3559C10.897 22.3559 10.82 22.3559 10.7385 22.3559C11.1369 21.8263 12.2959 20.613 12.6943 20.3504C13.1697 20.0335 13.4096 19.7166 13.1153 19.1642C12.8256 18.6074 12.0605 18.7432 12.0605 18.7432C12.0605 18.7432 12.5087 18.5576 12.9071 18.5576C12.4046 18.4263 11.7707 18.5576 11.481 18.8473C11.1641 19.1371 11.2184 20.1693 11.0871 20.8257C10.9558 21.5139 10.5076 21.8579 9.81951 22.4918C9.44827 22.8358 9.18569 22.94 8.97291 22.94C8.52472 22.863 7.99503 22.7272 7.6238 22.5959C7.36122 22.2518 6.96282 21.1155 6.8587 20.6401C6.93566 20.3775 7.25257 19.8207 7.41102 19.5038C7.72793 18.8971 7.91354 18.5531 7.96787 18.2362C8.07199 17.788 8.41606 15.0128 8.54735 13.8538C8.89142 14.302 9.36678 15.0445 9.25813 15.5198C10.0232 14.4378 9.47091 13.3784 9.2038 12.9574C8.96839 12.5364 8.65148 11.6898 8.91406 10.7934C9.17664 9.89699 10.1274 7.41154 10.1274 7.41154C10.1274 7.41154 10.4443 7.96839 10.8925 7.85974C11.3407 7.75561 14.9579 2.31388 14.9579 2.31388C14.9579 2.31388 15.9358 4.45073 14.9036 6.01263C13.8487 7.57 12.8165 7.85974 12.8165 7.85974C12.8165 7.85974 14.2698 8.12232 15.6144 7.14444C16.1667 8.43922 16.6964 9.78381 16.7235 9.96943C16.6421 10.155 15.5872 12.6903 15.4831 12.8488C15.4288 12.9031 15.062 13.0072 14.7949 13.0615C14.3467 13.1928 14.0842 13.2743 13.9755 13.3513C13.7899 13.5097 12.9433 15.8322 12.5494 16.9685C12.0741 17.0998 11.5987 17.3669 11.2546 17.8921C11.4403 17.7608 12.0197 17.6793 12.4453 17.6295C12.8165 17.6023 13.9483 18.209 14.2426 19.3453C14.2426 19.3725 14.2426 19.3725 14.2426 19.3997C14.3015 19.8162 14.1702 20.2146 13.9574 20.5315ZM11.4765 20.8484C11.7164 20.5043 11.6893 19.9248 11.7164 19.7392C11.7436 19.5536 11.7934 19.2095 12.0062 19.1597C12.2189 19.1054 12.7215 19.1869 12.7215 19.5536C12.7215 19.8977 12.3502 19.9746 12.0877 20.2146C11.8975 20.3957 11.5263 20.794 11.4765 20.8484ZM22.0114 15.8005C22.2739 14.4559 22.3011 13.2924 22.2241 12.3417C23.2518 13.7135 23.8856 15.3795 24.0712 17.0953C24.0984 17.3081 24.3067 17.5163 24.5194 17.7291C24.7051 17.8876 24.9178 18.1003 24.9178 18.2316C24.9178 18.8383 24.8635 19.4449 24.7594 20.0561C24.7322 20.1331 24.4968 20.2689 24.3112 20.373C24.0486 20.5043 23.8087 20.6356 23.7589 20.8484C23.1794 22.8811 21.9344 24.6784 20.2729 25.946C22.7267 23.3836 23.9128 19.1552 22.0114 15.8005ZM20.3499 26.1815C22.0657 24.8595 23.3876 23.0124 23.9671 20.9253C23.9943 20.8484 24.2297 20.7126 24.3881 20.6084C24.6507 20.4771 24.9178 20.3187 24.9676 20.1059C25.0718 19.4993 25.1261 18.8654 25.1261 18.2316C25.1261 17.9962 24.8861 17.7563 24.6507 17.5209C24.5194 17.3624 24.3067 17.1768 24.3067 17.0455C24.0939 15.1169 23.3288 13.2969 22.1426 11.7894C21.613 8.62031 19.5033 7.64243 19.4489 7.61527C19.5033 7.69676 20.875 9.67516 19.9243 11.9976C18.9464 14.3473 16.4383 13.9806 16.2255 14.0032C16.0128 14.0032 15.1979 15.058 14.1657 17.0138C14.0344 16.9595 13.4775 16.8282 12.8437 16.9368C13.3191 15.6149 14.0344 13.7406 14.1657 13.5822C14.22 13.5278 14.6139 13.4237 14.881 13.3467C15.3835 13.2155 15.6189 13.134 15.7004 13.0298C15.7547 12.9484 16.0173 12.3417 16.2799 11.7079C16.5198 11.7079 17.1265 11.6536 17.1763 11.6264C17.2306 11.5721 17.7331 10.2818 17.7331 10.1234C17.7331 9.99207 16.7009 7.42965 16.307 6.45177C16.4927 6.23899 16.6783 5.97641 16.8594 5.68667C22.2739 6.27068 26.5024 10.8658 26.5024 16.4343C26.5024 20.7126 23.9943 24.4385 20.3499 26.1815Z" fill="#1B314F"/>
<path d="M13.3236 11.9206C13.8261 11.3411 13.5635 10.2591 12.6354 10.0735C12.8754 9.52119 13.2149 8.41202 13.2149 8.41202C13.2149 8.41202 10.5212 12.6359 10.2858 12.7174C10.0458 12.7989 9.81042 11.8708 9.81042 11.8708C9.3079 13.7994 10.657 14.062 10.8155 13.4554C11.5534 13.2652 12.8211 12.4729 13.3236 11.9206Z" fill="#1B314F"/>
<path d="M11.0237 12.9483L12.3955 10.5987C12.3955 10.5987 13.1878 10.9971 12.7894 11.6309C12.2914 12.3688 11.0237 12.9483 11.0237 12.9483Z" fill="#FFD923"/>
<path d="M28.0054 23.8318C27.607 24.3615 27.1588 24.9138 26.6336 25.4435C30.0381 18.8926 26.7921 12.8985 26.6608 12.6631C26.9007 12.903 27.1362 13.1656 27.3489 13.401C29.9611 16.303 30.278 20.6627 28.0054 23.8318Z" fill="#D82122"/>
<path d="M31.1745 15.4066C29.9838 12.2103 28.2951 9.48947 24.5737 7.0357C20.9836 4.6589 17.1264 4.84452 16.9136 4.87168C16.8865 4.87168 16.8593 4.87168 16.8593 4.87168C16.9906 4.81735 17.1219 4.79019 17.2532 4.76755C18.0726 4.50497 19.1275 4.29219 20.1868 4.1609C22.9892 3.75798 25.8142 4.7087 27.7428 6.74596C27.77 6.77312 27.77 6.77312 27.7971 6.80029C29.9883 9.12276 31.1247 12.0247 31.1745 15.4066Z" fill="#D82122"/>
<path d="M23.7271 2.33197C19.793 1.59403 17.2577 1.96074 15.4333 2.64888C15.3789 2.4361 15.1933 2.01507 15.0349 1.67099C14.4871 2.33197 13.903 3.12424 13.5363 3.62676C12.5313 4.3149 12.1103 4.97588 12.1103 4.97588C12.6897 2.99295 14.3829 1.51707 16.4428 1.14583C17.0223 1.04171 17.6561 0.987381 18.3443 0.987381C20.1642 1.01454 21.9842 1.46274 23.7271 2.33197Z" fill="#D82122"/>
<path d="M9.17665 7.40244C6.08907 7.29832 7.11676 3.70369 7.17108 3.49544C7.17108 3.5226 7.37934 6.32043 9.17665 7.40244Z" fill="#D82122"/>
<path d="M12.2144 0.933044C9.83761 2.35912 10.313 5.7636 10.313 5.7636C8.0403 2.30932 12.0288 1.01453 12.2144 0.933044Z" fill="#D82122"/>
<path d="M8.30743 8.35319C8.46588 8.48448 8.62434 8.72442 8.43872 9.06849C8.33459 9.25411 8.17614 9.22695 7.9362 9.12282C7.61929 8.96437 5.71785 7.85519 4.00203 6.71886C5.9578 7.407 7.9362 8.14494 8.2531 8.30339C8.2531 8.30339 8.28027 8.33055 8.30743 8.35319Z" fill="white"/>
</svg>
