<svg width="227" height="227" viewBox="0 0 227 227" fill="none" xmlns="http://www.w3.org/2000/svg">
<path d="M227 113.5C227 50.8157 176.184 0 113.5 0C50.8157 0 0 50.8157 0 113.5C0 176.184 50.8157 227 113.5 227C176.184 227 227 176.184 227 113.5Z" fill="url(#paint0_radial_5369_3)"/>
<path d="M190.682 78.071C190.206 80.8495 189.65 82.1967 188.998 83.7559L188.997 83.7593C188.294 85.4496 187.497 87.3678 186.775 91.1735C186.487 92.6968 186.344 93.8142 186.219 94.7992L186.211 94.8601L186.203 94.9175C186.003 96.4952 185.868 97.5578 185.227 99.4487C184.707 100.993 183.838 103.57 181.742 106.346C180.051 108.592 177.219 112.351 173.44 112.802C173.113 112.824 172.426 112.858 172.146 112.715C161.426 107.241 152.216 103.196 149.028 102.288C145.319 101.238 145.794 93.1526 146.213 86.0197C146.402 82.8317 146.58 79.8171 146.43 77.2357C145.909 68.2306 144.314 58.3741 136.472 53.5689C131.791 50.7011 125.751 49.86 119.98 49.8481C121.05 49.3393 122.242 48.648 123.542 47.8913L123.582 47.8684C126.979 45.9006 131.197 43.4583 135.388 43.0284C136.759 42.8933 138.106 42.7345 139.434 42.5877C147.882 41.6309 155.182 40.8089 162.881 43.4452C166.371 44.6424 173.53 48.6361 175.378 52.345C176.679 54.962 178.874 57.0033 183.255 61.0755C185.536 63.1971 187.039 64.4308 188.138 65.3335L188.189 65.3748C189.733 66.6447 190.038 66.9103 190.496 67.8494C191.917 70.7423 191.4 73.8147 190.682 78.071V78.071Z" fill="white"/>
<path d="M151.465 115.016C152.082 115.226 152.314 115.976 151.959 116.524C150.844 118.243 149.571 120.557 148.057 123.365C147.319 124.739 146.621 126.035 146.035 127.047C143.958 130.614 143.789 133.616 143.657 136.025C143.514 138.546 143.386 139.703 141.881 140.707C140.637 141.541 139.365 141.819 130.538 143.163C128.998 143.401 128.314 143.7 127.713 143.962C127.616 144.004 127.521 144.045 127.42 144.087C126.809 144.338 126.2 143.811 126.234 143.151C126.297 141.92 126.337 140.404 126.342 138.528V138.145C126.388 136.416 126.315 135.012 126.253 133.88C126.137 131.627 126.123 130.677 126.723 129.697C127.461 128.511 128.036 128.149 128.981 127.55C130.302 126.721 132.112 125.578 134.791 121.896C136.215 119.947 136.531 118.889 136.728 117.975C136.813 117.597 136.844 117.454 137.941 116.624C139.099 115.744 142.63 113.069 147.15 113.829C148.347 114.031 149.856 114.467 151.465 115.016V115.016Z" fill="white"/>
<path d="M116.564 155.784C116.372 156.034 116.148 156.15 115.823 156.167C114.9 156.204 114.252 155.977 113.823 155.459C112.912 154.352 113.035 152.125 113.247 150.824L116.98 149.828C117.272 151.804 117.41 154.683 116.564 155.784V155.784Z" fill="white"/>
<path d="M116.866 142.317C116.804 142.861 116.735 143.474 116.738 144.115C116.743 144.354 116.746 144.594 116.753 144.828C116.761 145.438 116.784 146.407 116.7 146.848C115.534 147.272 114.538 147.272 113.23 147.25C113.21 146.871 113.234 146.308 113.249 145.926C113.256 145.633 113.273 145.34 113.276 145.061C113.28 144.753 113.276 144.447 113.276 144.143C113.271 143.425 113.261 142.249 113.437 141.902C113.789 141.851 114.148 141.774 114.534 141.685C115.305 141.519 116.312 141.307 116.953 141.403C116.943 141.652 116.905 142.023 116.866 142.317Z" fill="white"/>
<path d="M109.96 154.633C109.779 156.547 109.189 158.912 107.394 159.272C106.587 159.437 106.196 159.195 105.95 158.963C104.738 157.841 104.545 154.448 104.714 152.02C105.521 152.035 106.579 151.854 107.833 151.611C108.597 151.46 109.358 151.29 109.963 151.151C110.033 152.05 110.083 153.332 109.96 154.633V154.633Z" fill="white"/>
<path d="M109.113 147.767L105.064 149.186C105.269 147.615 105.543 145.403 105.64 143.933C105.709 142.899 105.991 142.582 106.071 142.513C106.098 142.49 106.153 142.441 106.303 142.441C106.327 142.441 106.349 142.445 106.376 142.445L106.46 142.457L109.019 142.318C109.128 143.521 109.128 146.161 109.113 147.767V147.767Z" fill="white"/>
<path d="M102.57 146.507C102.342 147.117 102.072 148.842 101.902 150.057L96.8303 149.903C97.1166 148.332 97.5127 146.734 97.949 145.46C98.3895 144.194 98.8642 143.245 99.3005 142.978C99.8093 142.672 100.929 142.604 101.616 143.19C102.732 144.141 103.04 145.23 102.57 146.507V146.507Z" fill="white"/>
<path d="M100.677 162.032C100.284 162.569 99.8476 162.842 99.3062 162.9C98.7543 162.961 98.3256 162.838 97.9828 162.517C96.3895 161.046 96.5201 156.23 96.5779 153.914C98.6816 153.435 100.951 153.027 102.028 152.964C102.19 154.904 102.236 159.908 100.677 162.032Z" fill="white"/>
<path d="M94.0575 149.768C93.8098 150.428 93.571 151.053 93.39 151.604C92.7995 151.79 90.9971 151.628 89.156 151.222L90.4214 143.24C92.5013 142.688 94.9135 142.51 95.4966 143.129C96.265 143.945 94.7222 148.028 94.0575 149.768V149.768Z" fill="white"/>
<path d="M91.7604 163.252C90.7768 164.464 89.3021 165.031 87.2444 165.009C85.8204 164.984 85.3114 164.444 85.0563 164.039C83.914 162.229 85.0325 157.964 86.1527 155.239L93.0229 155.651C93.0925 156.131 93.1505 156.712 93.1772 157.346C93.2528 159.284 93.0095 161.7 91.7604 163.252Z" fill="white"/>
<path d="M148.536 105.32C142.351 103.568 142.884 94.5243 143.398 85.7834C143.581 82.6902 143.753 79.7661 143.612 77.3747C143.137 69.193 141.762 60.2828 135.181 56.2492C128.103 51.9207 116.524 52.9073 109.38 53.8164C109.374 53.8172 109.368 53.8214 109.361 53.822C109.358 53.8221 109.356 53.8224 109.353 53.8234C106.736 54.6163 104.288 55.1305 102.39 55.0297C98.1757 54.8115 94.8956 53.0372 92.0071 51.4795C89.7537 50.2585 87.7879 49.2038 85.9365 49.2038C85.8386 49.2038 85.7362 49.2038 85.6352 49.2083C80.0972 49.5673 77.5516 50.9202 75.2386 52.9839C74.6571 53.4986 73.948 54.9895 71.6262 61.6803C70.4543 65.0612 70.2377 66.9112 70.0196 68.7093C69.8238 70.3516 69.6249 72.0414 68.7512 74.5619C68.143 76.3005 67.695 77.8004 67.2603 79.2469C66.1149 83.0892 65.21 86.1157 62.4906 89.7147C62.1716 90.1406 61.7755 90.7666 61.3186 91.4802C60.7015 92.4518 59.939 93.6594 58.9317 95.0569C58.221 96.042 56.5891 99.7286 56.6782 100.852C56.8116 102.639 57.3932 103.749 58.0578 105.044C58.7195 106.322 59.4731 107.768 59.6111 109.765L59.6334 110.088C59.8766 113.256 59.4241 114.844 53.3995 120.227C49.5476 123.673 46.811 126.994 44.9653 129.431C44.8024 129.646 45.0143 129.965 45.2831 129.944C45.3454 129.935 45.4077 129.93 45.4656 129.93C45.5813 129.921 45.697 129.917 45.8112 129.917C45.9269 129.917 46.0427 129.921 46.1568 129.926C46.2727 129.93 46.3838 129.939 46.4981 129.957C47.9551 130.123 49.3753 130.739 50.4007 131.801C50.5789 131.986 50.8559 132.036 51.0942 131.941C52.0747 131.533 53.1532 131.599 54.1829 131.696C55.4079 131.81 56.6452 132.167 57.4891 132.927C57.8104 133.217 58.2515 133.37 58.675 133.283C59.634 133.086 60.6333 133.119 61.562 133.457C62.2507 133.713 62.8415 134.103 63.3254 134.592C63.7816 135.052 64.5537 135.144 65.1171 134.823C65.3422 134.695 65.5848 134.585 65.8479 134.495C67.1563 134.052 68.6028 134.304 69.8728 134.761C70.4988 134.986 71.1545 135.187 71.7183 135.563C72.6493 136.183 73.2546 137.061 73.6609 138.051C73.973 138.81 75.0118 139.07 75.6784 138.59C76.4793 138.014 77.1402 137.94 77.8067 138.235C78.0825 138.36 78.2976 138.518 78.4625 138.708C78.9401 139.258 79.7073 139.807 80.4165 139.639C82.3921 139.172 84.7837 139.482 86.5388 140.422C87.1867 140.763 87.8242 141.282 88.2899 142.067C88.2905 142.068 88.2907 142.068 88.291 142.069C88.2914 142.072 88.2956 142.071 88.2961 142.068L88.3493 141.719C88.3734 141.561 88.4857 141.43 88.6383 141.383L89.0637 141.251C90.0667 140.932 95.1774 139.459 97.1653 141.553C97.2515 141.639 97.4012 141.647 97.4835 141.557C97.7546 141.261 97.9743 141.098 98.1148 141.017C99.41 140.232 101.629 140.183 103.107 141.447C103.404 141.697 103.886 141.606 104.11 141.289C104.248 141.094 104.405 140.922 104.58 140.774C105.099 140.326 105.757 140.112 106.483 140.156L109.292 140.005C109.998 139.966 112.192 139.817 112.884 139.671C112.936 139.66 112.99 139.65 113.045 139.642C113.337 139.597 113.685 139.522 114.048 139.446C115.41 139.149 116.954 138.815 118.223 139.401C119.442 139.965 119.288 141.354 119.141 142.578C119.083 143.075 119.021 143.594 119.025 144.086C119.034 144.316 119.039 144.548 119.043 144.784C119.061 145.839 119.083 146.814 118.875 147.563C118.874 147.564 118.874 147.566 118.874 147.568C118.874 147.569 118.874 147.57 118.874 147.572L119.003 148.151C119.137 148.721 119.746 149.043 120.244 148.735C121.193 148.149 122.169 147.409 122.481 146.971C122.51 146.931 122.532 146.887 122.549 146.84C122.593 146.723 122.669 146.479 122.753 145.987C122.927 144.944 123.121 142.824 123.139 138.519C123.139 138.292 123.139 138.129 123.144 138.053C123.179 136.455 123.117 135.173 123.055 134.041C122.939 131.708 122.845 129.871 124.004 128.002C125.132 126.183 126.226 125.495 127.278 124.828C128.502 124.062 129.883 123.191 132.208 120.001C133.349 118.43 133.49 117.797 133.601 117.291C133.853 116.105 134.245 115.392 136.006 114.061C137.439 112.978 141.801 109.673 147.684 110.662C149.614 110.99 152.742 112.019 155.829 113.235C155.83 113.236 155.832 113.236 155.833 113.236C155.835 113.236 155.835 113.236 155.836 113.237C155.947 113.269 156.062 113.308 156.167 113.361C156.215 113.386 156.264 113.411 156.315 113.431C158.983 114.497 161.581 115.683 163.3 116.648C163.789 116.923 164.411 116.759 164.768 116.326C165.299 115.682 165.875 115.289 166.493 114.918C166.74 114.767 166.932 114.653 167.114 114.497C167.693 114.005 167.687 112.974 167.012 112.627C158.797 108.407 151.096 106.048 148.536 105.32V105.32ZM89.5978 107.223C87.6855 115.597 74.715 124.799 68.8195 124.799H68.7036C68.6102 124.794 68.5078 124.786 68.3981 124.768C68.2869 124.75 68.1667 124.723 68.039 124.688C67.9768 124.67 67.9099 124.648 67.8432 124.63C66.7735 124.293 65.2915 123.471 64.17 122.367C63.3985 121.609 62.7904 120.716 62.5989 119.753C62.5634 119.584 62.5277 119.417 62.4922 119.248C62.1732 117.823 61.7771 116.045 63.0336 113.134C63.2072 112.744 63.3614 112.379 63.504 112.046C63.5484 111.935 63.5974 111.824 63.6419 111.719C63.7754 111.404 63.894 111.115 64.0009 110.854C64.1789 110.41 64.3243 110.033 64.4444 109.713C64.4933 109.588 64.538 109.468 64.578 109.358C64.937 108.351 64.9815 107.974 65.0304 107.584C65.0749 107.278 65.1195 106.904 65.2441 106.372C65.612 104.801 65.8033 103.47 65.9726 102.285C66.2737 100.154 66.5362 98.3133 67.6845 96.6235C67.8803 96.3358 68.0969 96.0731 68.3417 95.8432C68.4263 95.7631 68.5065 95.6874 68.5939 95.6117C68.683 95.5361 68.7719 95.4694 68.8595 95.4027C69.1384 95.2068 69.4365 95.0347 69.7599 94.8878C69.8712 94.8389 69.9826 94.7899 70.0922 94.7499C70.3192 94.6653 70.5581 94.5941 70.8073 94.5317C71.8636 94.2751 73.1098 94.2351 74.543 94.4161C76.1096 94.5407 77.5604 94.8373 78.8467 95.1963C79.9207 95.4931 80.879 95.8403 81.6905 96.1636C81.7751 96.1948 81.8553 96.226 81.9353 96.2615C82.0911 96.3239 82.241 96.3862 82.3879 96.453C82.6104 96.5465 82.8136 96.6354 83.005 96.7185C83.2571 96.8343 83.4886 96.9365 83.6934 97.0286L83.8847 97.1175C84.7896 97.53 85.5671 97.9824 86.2318 98.4573C86.5596 98.6976 86.8666 98.9409 87.1411 99.1886C87.2346 99.2688 87.3235 99.3532 87.4066 99.4423C87.4957 99.5268 87.5802 99.6114 87.6589 99.696C90.1511 102.32 90.0281 105.356 89.5978 107.223V107.223ZM95.6092 75.489L95.3569 77.0067C94.7755 80.4278 93.4402 85.1172 88.5149 86.3248C83.7765 87.4834 82.6533 87.7313 79.2812 87.8826C79.2056 87.8914 79.1256 87.8914 79.0454 87.8914C76.5827 87.8914 71.8443 86.3382 71.0047 82.478C70.4676 79.9931 71.564 78.192 73.3693 75.2057C73.6706 74.7132 73.9955 74.1851 74.3411 73.5946C76.7282 69.5742 77.6688 66.6635 78.4239 64.3299C79.1597 62.0497 79.7723 60.1642 81.3479 58.6019C81.7114 58.2386 82.1238 57.8958 82.603 57.5679C82.9086 57.3588 83.229 57.1734 83.5658 56.9998C84.0138 56.7773 84.484 56.5829 84.9766 56.4272C86.0729 56.077 87.2568 55.8989 88.4422 55.8989C90.7401 55.8989 93.0351 56.5606 94.6715 57.8735C95.4073 58.464 96.4548 59.6435 97.0631 63.1223C97.3761 64.9144 96.8435 68.2079 95.6092 75.489V75.489ZM130.747 85.2241C129.051 88.1348 128.124 89.7369 126.66 90.9386C123.753 93.3257 120.363 93.9295 117.573 93.9295C115.567 93.9295 113.864 93.6194 112.861 93.4369C109.977 92.9087 104.608 91.9326 102.821 87.6956C102.47 86.8574 102.466 86.3248 102.466 85.6498C102.466 84.9837 102.466 83.8622 102.156 81.1948L102.138 81.0167C101.996 79.8091 101.837 78.4428 102.183 76.6907L102.223 76.4817C103.235 71.3353 103.509 70.5489 103.736 70.1053C104.26 69.0935 105.501 68.6945 106.513 69.2138C107.494 69.724 107.902 70.9124 107.44 71.9108C107.338 72.2031 107.05 73.2993 106.268 77.2797L106.228 77.489C106.006 78.6119 106.104 79.4635 106.233 80.542L106.251 80.7246C106.587 83.6218 106.587 84.9347 106.587 85.6454C106.587 85.7704 106.587 85.9083 106.591 85.9902C106.593 86.0215 106.608 86.0637 106.618 86.0935C106.919 86.8052 107.555 87.3631 108.346 87.8048C109.027 88.1848 109.759 87.5185 109.613 86.7529C108.761 82.2904 108.849 77.1685 110.541 73.9759C111.108 72.89 112.158 71.1146 113.155 69.4566C113.158 69.4519 113.161 69.4478 113.164 69.443C113.166 69.4382 113.17 69.434 113.172 69.4294C113.273 69.2626 113.374 69.0972 113.474 68.9304C113.558 68.7879 113.643 68.6516 113.722 68.518C114.161 67.7896 114.573 67.1205 114.902 66.5879C114.947 66.5122 114.992 66.4365 115.036 66.3653C115.067 66.3119 115.098 66.263 115.129 66.2185C115.201 66.1028 115.263 65.996 115.321 65.9039C115.348 65.8594 115.374 65.8195 115.396 65.7793C115.41 65.7615 115.419 65.7438 115.428 65.7304C115.459 65.6769 115.49 65.628 115.517 65.588C115.57 65.5034 115.61 65.4411 115.632 65.4011C115.634 65.3979 115.636 65.3946 115.637 65.3916C115.642 65.3826 115.652 65.3696 115.657 65.3607C115.66 65.3545 115.661 65.3536 115.665 65.3479C115.91 64.9904 116.154 64.6459 116.393 64.3154C116.933 63.5703 116.302 62.6181 115.463 62.9963C114.024 63.6457 113.055 64.3852 112.842 64.554C111.95 65.2646 110.654 65.1178 109.949 64.2261C109.243 63.3345 109.39 62.0349 110.281 61.3242C111.342 60.4905 116.963 56.39 123.695 58.3156C128.545 59.6954 131.088 63.4012 132.046 64.7943C132.818 65.9262 135.184 69.3607 135.108 74.1568C135.052 77.8139 133.525 80.4457 130.747 85.2241V85.2241Z" fill="white"/>
<path d="M87.0252 60.1423C86.681 60.976 86.2685 62.01 85.825 63.1331C84.7908 65.7337 83.6174 68.68 83.0536 69.7481C82.0804 71.5937 81.3239 72.7582 80.7186 73.6973C80.0272 74.7744 79.4753 75.6274 79.0585 76.8157C78.3286 78.8956 78.1981 81.2204 78.6728 83.7483C77.3835 83.6059 75.2726 82.7172 75.0337 81.5986C74.8556 80.7649 75.3734 79.8541 76.8985 77.3453C77.2041 76.8439 77.5319 76.2994 77.891 75.6941C80.5124 71.2792 81.5732 67.9946 82.3534 65.5928C83.1946 62.9803 83.5922 61.8839 84.9318 60.9686C85.5311 60.5517 86.2611 60.2862 87.0252 60.1423V60.1423Z" fill="white"/>
<path d="M84.4675 152.737C83.0388 155.656 81.26 158.349 80.1518 159.684C79.2335 157.203 77.6386 151.518 78.06 146.944C78.0719 146.812 78.0868 146.681 78.1061 146.554C78.2752 145.141 78.6504 143.845 79.3181 142.806C79.7587 142.124 80.9782 141.707 82.3638 141.707C83.3859 141.707 84.4985 141.931 85.4555 142.444H85.4629C85.9762 142.719 86.6749 143.273 86.7477 144.888C86.853 147.067 85.8145 149.997 84.4675 152.737V152.737Z" fill="white"/>
<path d="M162.751 120.029C162.862 120.118 162.932 120.252 162.869 120.38C162.442 121.237 161.93 121.838 161.326 122.548C160.597 123.415 159.763 124.401 158.986 125.936C157.882 128.112 157.529 130.097 157.343 135.18C157.124 141.151 157.354 144.505 157.529 146.952C157.694 149.314 157.796 150.738 157.374 153.042C156.525 157.688 154.538 160.765 152.02 164.66C148.871 169.53 145.613 174.563 140.217 176.169C139.716 176.323 139.699 176.323 138.292 176.328C137.068 176.328 135.031 176.331 131.175 176.475C124.127 176.73 120.591 176.856 117.566 177.438C114.393 178.053 112.737 178.728 111.132 179.376C109.684 179.962 108.315 180.519 105.691 181.058C104.127 181.375 101.789 181.719 93.8225 181.73C85.5429 181.745 80.5449 181.75 73.9446 180.998C64.889 179.963 60.3434 179.446 57.3245 177.834C50.2035 174.035 47.1964 167.203 42.222 155.887C42.2135 155.867 42.2049 155.847 42.1964 155.827C42.1349 155.687 42.3065 155.551 42.4387 155.629C42.6746 155.776 42.9208 155.897 43.1805 155.983C43.397 156.06 43.624 156.119 43.8526 156.157C44.3079 156.235 44.7826 156.239 45.2647 156.157C45.3494 156.142 45.4266 156.124 45.5007 156.091C45.5149 156.086 45.529 156.079 45.543 156.073C45.6272 156.031 45.7322 156.066 45.7677 156.153C46.0838 157.025 46.5866 157.801 47.4308 158.248C48.2764 158.69 49.2377 158.724 50.1783 158.716C51.147 158.701 52.1232 158.647 53.089 158.531C53.6007 158.477 54.1241 158.727 54.3202 159.203C55.2038 161.346 56.2996 162.898 57.9446 163.127C58.0336 163.139 58.1494 163.153 58.2962 163.153C58.617 163.153 59.088 163.073 59.7313 162.693C60.5249 162.225 61.7202 162.52 62.3233 163.216C62.678 163.627 63.0671 163.943 63.4099 164.218C65.1041 165.959 69.2225 166.793 72.6806 166.793C74.5677 166.793 76.2589 166.545 77.2543 166.059C78.6785 165.369 78.6785 164.308 78.6087 163.879C78.4877 163.11 78.3783 162.347 78.2846 161.59C78.2733 161.5 78.4108 161.465 78.4471 161.548C78.6547 161.999 78.9069 162.563 79.5821 162.671C79.6546 162.679 79.7363 162.696 79.8297 162.696C80.7941 162.696 82.2931 163.009 82.5517 163.937C82.6833 164.41 82.8702 164.853 83.1233 165.254C83.7017 166.17 84.8796 167.262 87.2148 167.301H87.3958C90.0779 167.301 92.1475 166.423 93.5435 164.691C93.6341 164.578 93.7206 164.464 93.8034 164.346C94.3052 163.641 95.7951 163.61 96.4335 164.197C97.1515 164.861 98.0551 165.204 99.0624 165.204C99.224 165.204 99.3873 165.196 99.5564 165.177C100.757 165.049 101.795 164.413 102.571 163.329C103.078 162.62 103.449 161.749 103.72 160.807C103.799 160.529 104.18 160.447 104.393 160.642C104.906 161.116 105.728 161.618 106.913 161.618C107.202 161.618 107.516 161.587 107.848 161.517C110.177 161.05 111.337 159.121 111.886 156.945C111.904 156.872 112.01 156.852 112.058 156.91C112.649 157.628 113.738 158.457 115.632 158.457C115.728 158.457 115.829 158.457 115.929 158.452C116.931 158.406 117.777 157.966 118.387 157.178C119.104 156.244 119.401 154.876 119.481 153.485C119.511 152.972 119.84 152.522 120.31 152.317C122.281 151.459 124.605 149.715 125.299 148.517C125.304 148.509 125.308 148.5 125.313 148.492C125.526 148.117 125.861 147.811 126.284 147.728C127.748 147.442 128.403 147.159 129 146.898C129.502 146.679 129.904 146.505 131.03 146.33C139.984 144.964 141.732 144.663 143.669 143.371C146.568 141.438 146.715 138.777 146.857 136.204C146.981 134.027 147.12 131.557 148.81 128.658C149.424 127.601 150.133 126.28 150.887 124.884C152.175 122.494 153.965 119.169 155.276 117.343C155.574 116.929 156.12 116.799 156.59 116.999C159.624 118.294 162.191 119.578 162.751 120.029V120.029Z" fill="white"/>
<path d="M75.7888 146.662C75.4343 149.758 75.2176 153.894 75.719 159.283C75.8614 160.802 76.0588 162.382 76.3051 163.979C75.8807 164.211 74.6138 164.536 72.3604 164.499C69.1218 164.434 65.9693 163.621 65.0227 162.597L64.8759 162.464C64.0881 161.831 63.5719 161.414 63.4976 160.284C63.474 159.902 63.6371 159.524 63.9873 158.99C64.1802 158.688 64.4353 158.343 64.7512 157.913C65.2957 157.183 65.9707 156.272 66.662 155.1C68.6885 151.675 69.4571 150.617 70.4332 149.282C70.5104 149.174 70.5919 149.065 70.6766 148.954C71.2521 148.166 71.9271 147.224 72.9419 145.677C73.6984 144.527 74.3275 143.627 74.8453 142.921C75.7102 141.744 76.2768 141.106 76.6403 140.759C76.5869 141.292 76.4667 142.041 76.3511 142.732C76.1789 143.794 75.9624 145.095 75.7888 146.662Z" fill="white"/>
<path d="M74.3056 98.5341C74.2865 98.5608 74.2627 98.5875 74.2434 98.6156C73.8221 99.1987 73.3398 99.8589 72.7657 101.143C71.2213 104.575 71.1917 106.517 71.1681 108.079C71.1531 108.898 71.1443 109.549 70.9202 110.31C70.7659 110.812 70.5152 111.387 70.2259 112.05C69.315 114.135 68.1267 116.868 68.6593 120.545C67.922 120.191 66.7945 119.379 66.6373 118.948C66.5987 118.747 66.5556 118.55 66.5096 118.353C66.2545 117.206 66.0854 116.458 66.8154 114.779C68.7335 110.355 68.9694 109.306 69.1192 108.101C69.1504 107.839 69.1816 107.634 69.2586 107.302C69.6637 105.557 69.8759 104.063 70.0494 102.863C70.3075 101.041 70.4812 99.8366 71.0953 98.9302C71.3192 98.5949 71.9528 98.4213 72.8593 98.4213C73.2183 98.4213 73.6232 98.4479 74.0639 98.5103L74.1677 98.5177C74.2122 98.5222 74.2597 98.5267 74.3056 98.5341V98.5341Z" fill="white"/>
<path d="M71.7749 142.17C71.6712 141.109 71.4857 140.047 71.1 139.047C71.0732 138.996 70.9576 138.741 70.9338 138.692C70.8642 138.565 70.784 138.444 70.7097 138.318C70.7054 138.314 70.7023 138.314 70.7023 138.311C70.6978 138.303 70.6949 138.303 70.6949 138.299C70.652 138.253 70.6134 138.207 70.5718 138.164C70.5094 138.102 70.4412 138.041 70.3745 137.986C70.3626 137.971 70.3507 137.959 70.3404 137.955C70.3092 137.928 70.2633 137.893 70.2128 137.863C70.1313 137.82 70.0541 137.774 69.9739 137.732C69.9501 137.717 69.8924 137.694 69.8389 137.675C69.8389 137.675 69.8345 137.675 69.8345 137.67C69.8226 137.666 69.8107 137.663 69.8003 137.658C69.7885 137.651 69.781 137.646 69.7736 137.643C69.7617 137.639 69.7543 137.636 69.7469 137.636C69.7395 137.636 69.7395 137.631 69.7395 137.631C69.7159 137.62 69.7011 137.617 69.6892 137.612C69.0719 137.385 68.4459 137.137 67.7902 137.041C67.7858 137.041 67.7754 137.037 67.7665 137.037H67.7516C67.6789 137.037 67.5276 137.022 67.5201 137.022C67.4283 137.017 67.3392 137.017 67.2502 137.022C67.2071 137.022 67.1656 137.022 67.127 137.026H67.0929C67.078 137.026 67.0587 137.031 67.0396 137.031C67.0322 137.038 67.0203 137.038 67.0158 137.038C67.0113 137.038 67.0084 137.038 67.0084 137.038C66.8615 137.081 66.7071 137.12 66.5603 137.166C66.498 137.197 66.4298 137.228 66.3675 137.267C66.3141 137.298 66.2591 137.336 66.2057 137.363C66.2012 137.367 66.194 137.375 66.1864 137.375L66.1747 137.387C66.1049 137.456 66.0321 137.522 65.9625 137.591C65.9387 137.615 65.8734 137.695 65.8275 137.753C65.8156 137.761 65.8082 137.768 65.8082 137.775C65.8037 137.78 65.8038 137.78 65.8008 137.783C65.7963 137.787 65.7963 137.79 65.7889 137.795C65.7845 137.799 65.7844 137.802 65.7815 137.802C65.7622 137.836 65.7429 137.864 65.7355 137.879C65.4878 138.265 65.237 138.648 64.9788 139.029C64.384 139.94 63.7742 140.846 63.1571 141.747C62.5933 142.561 62.0297 143.376 61.4704 144.19C61.1574 144.646 60.8487 145.097 60.5401 145.552C60.4867 145.629 60.4364 145.706 60.3859 145.784C60.7523 145.853 61.1188 145.926 61.4897 145.996C62.3189 146.147 63.1452 146.292 63.9864 146.408C65.7191 146.644 67.4802 146.752 69.2352 146.69C69.3198 146.686 69.4042 146.69 69.4828 146.705C69.9043 146.102 70.4012 145.384 71.0346 144.423C71.3863 143.886 71.7215 143.389 72.0376 142.929C71.8951 142.71 71.8061 142.447 71.7749 142.17V142.17Z" fill="white"/>
<path d="M65.6063 149.33C65.4563 150.665 63.9624 154.123 61.6304 157.416C59.678 160.168 58.4927 160.835 58.2567 160.858C57.3147 160.728 56.3845 158.397 55.6471 156.085C55.3505 155.148 55.0835 154.212 54.8594 153.429C54.3535 151.67 54.2615 149.311 54.3506 147.829C56.3192 148.921 59.7773 149.214 64.6329 149.234H64.6478C64.9683 149.268 65.2857 149.303 65.6063 149.33V149.33Z" fill="white"/>
<path d="M62.1508 138.337V138.344C62.127 138.375 62.1077 138.409 62.0854 138.44C61.2517 139.667 60.4106 140.888 59.5694 142.111C59.1332 142.74 58.7016 143.369 58.2728 144.002C58.037 144.346 57.7209 144.725 57.4465 145.133C56.7551 144.971 56.0653 144.812 55.3814 144.619C54.8221 144.458 54.2701 144.284 53.7287 144.067C53.6203 144.029 53.5166 143.986 53.4157 143.937C53.3266 143.756 53.1991 143.593 53.0448 143.47C53.0493 143.465 53.0493 143.455 53.0522 143.45C53.2496 143.048 53.4499 142.643 53.6471 142.243C54.0209 141.505 54.3963 140.773 54.8131 140.062C55.5549 138.78 56.4495 137.476 57.7046 136.645C57.7669 136.599 57.8351 136.556 57.9018 136.515C58.3884 136.209 58.8752 135.994 59.4729 135.92C59.5427 135.912 59.9626 135.915 60.1598 135.932C60.1939 135.932 60.2222 135.936 60.2415 135.936H60.2458C60.2608 135.941 60.2889 135.948 60.3304 135.963C60.4773 136.009 60.6241 136.04 60.771 136.091C60.8215 136.114 60.8675 136.137 60.9179 136.163C61.0456 136.24 61.176 136.31 61.2962 136.406C61.1033 136.26 61.5632 136.734 61.5632 136.7C61.9341 137.213 62.0468 137.642 62.1508 138.337V138.337Z" fill="white"/>
<path d="M55.546 134.848C54.0016 136.118 52.8787 137.809 51.941 139.569C51.4158 140.545 50.9411 141.54 50.4471 142.533C50.3966 142.634 50.3461 142.73 50.2884 142.829C49.8211 142.728 49.3537 142.594 48.8983 142.448C48.4117 142.294 47.9296 142.116 47.4666 141.901C47.2545 141.8 47.0424 141.696 46.8303 141.585C47.2931 140.708 47.845 139.867 48.3702 139.049C49.1118 137.895 49.9145 136.76 50.7869 135.695C51.1147 135.29 51.4618 134.846 51.9217 134.579C52.3921 134.302 52.9602 134.367 53.5002 134.399C54.0714 134.434 54.6855 134.449 55.2256 134.665C55.3369 134.713 55.457 134.787 55.546 134.848V134.848Z" fill="white"/>
<path d="M53.0939 155.571C53.0167 155.636 52.9514 155.707 52.8936 155.787C52.8402 155.802 52.7852 155.815 52.7511 155.822C52.3803 155.861 52.002 155.889 51.6281 155.912C50.9101 155.958 50.1801 155.989 49.4547 155.963C49.0498 155.947 48.6833 155.886 48.5172 155.628C48.2502 155.222 48.17 154.516 48.0735 153.979C47.5988 151.343 47.5366 148.595 47.8732 145.928C49.2514 146.422 50.6683 146.805 52.1221 147.044C51.8091 149.448 52.3417 152.979 52.6547 154.061C52.8001 154.564 52.9469 155.072 53.0939 155.571Z" fill="white"/>
<path d="M48.6609 133.975C47.4415 135.472 46.3303 137.066 45.3333 138.718C44.9313 139.39 44.4758 140.084 44.1406 140.802C43.6584 140.667 43.2222 140.474 42.7594 140.188C42.4049 139.968 42.0606 139.725 41.7254 139.47C41.6408 139.4 41.4093 139.219 41.2655 139.103C41.2314 139.077 41.2002 139.05 41.1645 139.031C41.2759 138.715 41.4806 138.363 41.5934 138.127C41.8485 137.568 42.1334 137.019 42.4316 136.483C42.9983 135.481 43.6317 134.5 44.3498 133.596C44.6168 133.264 44.8705 132.835 45.2844 132.712C45.6627 132.604 46.1612 132.654 46.4652 132.708C47.3687 132.883 48.0749 133.292 48.6609 133.975Z" fill="white"/>
<path d="M39.256 140.5C39.276 140.423 39.376 140.412 39.423 140.478C39.742 140.922 40.1801 141.309 40.6494 141.675C40.8597 141.835 41.0688 141.995 41.2813 142.146C41.3143 142.169 41.3299 142.21 41.3205 142.249C40.8293 144.287 40.49 146.447 40.4787 148.579C40.4781 148.697 40.3004 148.722 40.2729 148.608C39.6646 146.063 38.8743 141.995 39.256 140.5V140.5Z" fill="white"/>
<path d="M45.2365 145.021C44.9888 146.843 44.87 148.67 44.9502 150.506C44.9888 151.513 45.097 152.513 45.232 153.509C45.232 153.516 45.232 153.524 45.2365 153.528V153.533C45.0198 153.482 44.793 153.475 44.5615 153.509C44.6075 153.494 44.4888 153.501 44.4384 153.501H44.4234C44.3895 153.497 44.339 153.494 44.3226 153.49C44.0675 153.427 44.0453 153.401 43.8434 153.273C43.5809 153.104 43.3034 152.794 43.118 152.478C42.6284 151.629 42.5202 150.598 42.4816 149.637C42.4089 147.75 42.5705 145.866 42.9222 144.017C43.2233 144.14 43.4859 144.253 43.922 144.441C44.3538 144.63 44.8018 144.815 45.238 145.017V145.021H45.2365Z" fill="white"/>
<defs>
<radialGradient id="paint0_radial_5369_3" cx="0" cy="0" r="1" gradientUnits="userSpaceOnUse" gradientTransform="translate(113.5 125.394) rotate(90) scale(127.515)">
<stop offset="0.166667" stop-color="#073183"/>
<stop offset="1" stop-color="#0054F9"/>
</radialGradient>
</defs>
</svg>
