<?xml version="1.0" encoding="utf-8"?>
<!-- Generator: Adobe Illustrator 25.0.1, SVG Export Plug-In . SVG Version: 6.00 Build 0)  -->
<svg version="1.0"
	 id="svg8" xmlns:cc="http://creativecommons.org/ns#" xmlns:dc="http://purl.org/dc/elements/1.1/" xmlns:inkscape="http://www.inkscape.org/namespaces/inkscape" xmlns:rdf="http://www.w3.org/1999/02/22-rdf-syntax-ns#" xmlns:sodipodi="http://sodipodi.sourceforge.net/DTD/sodipodi-0.dtd" xmlns:svg="http://www.w3.org/2000/svg"
	 xmlns="http://www.w3.org/2000/svg" xmlns:xlink="http://www.w3.org/1999/xlink" x="0px" y="0px" viewBox="0 0 909.6 648.8"
	 style="enable-background:new 0 0 909.6 648.8;" xml:space="preserve">
<style type="text/css">
	.st0{fill-rule:evenodd;clip-rule:evenodd;stroke:#000000;stroke-width:1.2373;stroke-miterlimit:11.3386;}
	.st1{fill:#FFFFFF;}
</style>
<sodipodi:namedview  bordercolor="#666666" borderopacity="1.0" id="base" inkscape:current-layer="layer1" inkscape:cx="184.71274" inkscape:cy="416.19233" inkscape:document-rotation="0" inkscape:document-units="mm" inkscape:pageopacity="0.0" inkscape:pageshadow="2" inkscape:snap-bbox="true" inkscape:window-height="1051" inkscape:window-maximized="1" inkscape:window-width="1842" inkscape:window-x="69" inkscape:window-y="-9" inkscape:zoom="0.39629945" pagecolor="#ffffff" showgrid="false">
	</sodipodi:namedview>
<g id="layer1" transform="translate(295.65791,-75.71863)" inkscape:groupmode="layer" inkscape:label="Layer 1">
	<circle id="path854" class="st0" cx="159.1" cy="400.1" r="284.6"/>
	<path id="path876" class="st1" d="M33,238L13.9,257l24.1,24.1l24.2,24.1l-2,5.9c-2.6,7.7-3.6,14.2-3.6,22.8c0,28,14.7,51.8,40.6,66
		c10.4,5.7,28.4,12.1,48.2,17.2c38.8,10,44.7,11.7,52.4,15.3c10.4,5,15.6,10.3,17.8,18.4c0.9,3.5,0.9,11.4-0.1,15.2
		c-2.4,9.2-10.3,18.5-20,23.6c-13.2,6.9-36.1,8.8-53.4,4.4c-6.4-1.6-15.5-6.1-20.1-9.8c-9.3-7.7-16.6-21-19.8-36.3
		c-0.5-2.4-0.9-4.5-1-4.6c-0.2-0.2-54.1,5.1-54.4,5.4c-0.2,0.2-0.1,2.4,0.3,4.9c1.7,12.2,6,26.7,10.9,36.7l2.8,5.9l-23.5,23.5
		l-23.4,23.5l19.1,19.1l19.1,19.1l24.2-24.2l24.1-24.1l4.2,1.7c22,9.3,55.1,12.2,87.1,7.5c7.7-1.1,18.8-3.7,24.7-5.9l3.5-1.3
		l23.1,23.1l23.1,23.1l19.1-19.1l19.1-19.1l-21.5-21.5l-21.4-21.4l2.7-5.5c5.6-11.2,7.9-20.8,8.4-33.9c0.8-25-5.6-43.9-20.4-59.5
		c-15.4-16.2-32.7-23.9-81.7-36.2c-34.5-8.6-49.4-14.6-55.3-22.1c-5.9-7.4-6.4-17.7-1.3-25.2c3-4.4,10.2-9.1,18.1-11.7
		c8.9-3,23.9-4.4,35-3.2c23.5,2.5,35.3,12.5,40.4,34.4c0.6,2.7,1.2,5,1.3,5.1c0.1,0.2,38.3-1.2,49.7-1.8l6.5-0.3l-0.4-4.6
		c-0.7-9.3-2.6-17.7-6-26.4l-1.8-4.9l23.8-23.8l23.8-23.8l-19.1-19.1l-19.1-19.1l-24,24L218,266.9l-5.9-2.2
		c-14.4-5.4-28.3-7.7-48.8-8.3c-22.4-0.6-42.1,2.3-57.1,8.4l-5.6,2.3L76.4,243l-24.2-24.1L33,238z"/>
</g>
</svg>
