<svg width="571" height="571" viewBox="0 0 571 571" fill="none" xmlns="http://www.w3.org/2000/svg">
<path d="M285.758 569.981C442.938 569.981 570.358 442.562 570.358 285.381C570.358 128.201 442.938 0.781372 285.758 0.781372C128.578 0.781372 1.1579 128.201 1.1579 285.381C1.1579 442.562 128.578 569.981 285.758 569.981Z" fill="black" stroke="black" stroke-width="1.2373" stroke-miterlimit="11.3386"/>
<path d="M159.658 123.281L140.558 142.281L164.658 166.381L188.858 190.481L186.858 196.381C184.258 204.081 183.258 210.581 183.258 219.181C183.258 247.181 197.958 270.981 223.858 285.181C234.258 290.881 252.258 297.281 272.058 302.381C310.858 312.381 316.758 314.081 324.458 317.681C334.858 322.681 340.058 327.981 342.258 336.081C343.158 339.581 343.158 347.481 342.158 351.281C339.758 360.481 331.858 369.781 322.158 374.881C308.958 381.781 286.058 383.681 268.758 379.281C262.358 377.681 253.258 373.181 248.658 369.481C239.358 361.781 232.058 348.481 228.858 333.181C228.358 330.781 227.958 328.681 227.858 328.581C227.658 328.381 173.758 333.681 173.458 333.981C173.258 334.181 173.358 336.381 173.758 338.881C175.458 351.081 179.758 365.581 184.658 375.581L187.458 381.481L163.958 404.981L140.558 428.481L159.658 447.581L178.758 466.681L202.958 442.481L227.058 418.381L231.258 420.081C253.258 429.381 286.358 432.281 318.358 427.581C326.058 426.481 337.158 423.881 343.058 421.681L346.558 420.381L369.658 443.481L392.758 466.581L411.858 447.481L430.958 428.381L409.458 406.881L388.058 385.481L390.758 379.981C396.358 368.781 398.658 359.181 399.158 346.081C399.958 321.081 393.558 302.181 378.758 286.581C363.358 270.381 346.058 262.681 297.058 250.381C262.558 241.781 247.658 235.781 241.758 228.281C235.858 220.881 235.358 210.581 240.458 203.081C243.458 198.681 250.658 193.981 258.558 191.381C267.458 188.381 282.458 186.981 293.558 188.181C317.058 190.681 328.858 200.681 333.958 222.581C334.558 225.281 335.158 227.581 335.258 227.681C335.358 227.881 373.558 226.481 384.958 225.881L391.458 225.581L391.058 220.981C390.358 211.681 388.458 203.281 385.058 194.581L383.258 189.681L407.058 165.881L430.858 142.081L411.758 122.981L392.658 103.881L368.658 127.881L344.658 152.181L338.758 149.981C324.358 144.581 310.458 142.281 289.958 141.681C267.558 141.081 247.858 143.981 232.858 150.081L227.258 152.381L203.058 128.281L178.858 104.181L159.658 123.281Z" fill="white"/>
</svg>
