<svg width="227" height="227" viewBox="0 0 227 227" fill="none" xmlns="http://www.w3.org/2000/svg">
<path d="M219.906 113.5C219.906 54.7333 172.266 7.09375 113.5 7.09375C54.7333 7.09375 7.09375 54.7333 7.09375 113.5C7.09375 172.266 54.7333 219.906 113.5 219.906C172.266 219.906 219.906 172.266 219.906 113.5Z" fill="#7F979F" stroke="url(#paint0_linear_5140_8)" stroke-width="14.1875"/>
<path fill-rule="evenodd" clip-rule="evenodd" d="M124.396 163.44V163.667H163.44V149.593H144.159C155.76 140.804 163.213 127.141 163.213 111.797C163.213 85.282 140.956 63.787 113.5 63.787C86.0444 63.787 63.7871 85.282 63.7871 111.797C63.7871 127.141 71.2402 140.804 82.8409 149.593H63.5601V163.667H102.604V163.44V144.751C88.3779 140.273 78.0881 127.263 78.0881 111.911C78.0881 92.855 93.9426 77.407 113.5 77.407C133.058 77.407 148.912 92.855 148.912 111.911C148.912 127.263 138.622 140.273 124.396 144.751V163.44Z" fill="#E5F0E9"/>
<defs>
<linearGradient id="paint0_linear_5140_8" x1="113.5" y1="-119.175" x2="113.5" y2="363.2" gradientUnits="userSpaceOnUse">
<stop offset="0.194948" stop-color="#708B96"/>
<stop offset="1" stop-color="#F7FBE7"/>
</linearGradient>
</defs>
</svg>
