<svg width="32" height="29" viewBox="0 0 32 29" fill="none" xmlns="http://www.w3.org/2000/svg">
<path fill-rule="evenodd" clip-rule="evenodd" d="M10.7663 0.754042C11.7717 -0.251347 13.4018 -0.251347 14.4072 0.754042L22.8266 9.17349L19.4134 12.5868L12.5868 5.76022L5.7602 12.5868L9.17348 16.0001L12.5868 12.5868L16 16.0001L12.5868 19.4134L17.7067 24.5333C18.6492 25.4758 18.6492 27.004 17.7067 27.9466C16.7642 28.8891 15.236 28.8891 14.2934 27.9466L0.754031 14.4072C-0.251344 13.4018 -0.251344 11.7717 0.754031 10.7664L10.7663 0.754042Z" fill="#3CEAAA"/>
<path fill-rule="evenodd" clip-rule="evenodd" d="M17.5928 0.754039C18.5982 -0.25135 20.2283 -0.251314 21.2337 0.754075L31.246 10.7664C32.2513 11.7717 32.2513 13.4018 31.246 14.4072L17.8204 27.8328C16.815 28.8382 15.1849 28.8382 14.1795 27.8328L12.5867 26.2399L19.4132 19.4134L12.5867 12.5868L16 9.17348L22.8265 16.0001L26.2398 12.5868L16 2.34691L17.5928 0.754039Z" fill="#03BCE4"/>
<path d="M16.0001 9.17368L12.5868 5.76041L9.17351 9.17368L12.5868 12.587L16.0001 9.17368Z" fill="#029ABB"/>
<path opacity="0.95" d="M22.8265 9.17368L19.4132 5.76041L16 9.17368L19.4132 12.587L22.8265 9.17368Z" fill="#3CEAAA"/>
</svg>
