<svg width="227" height="227" viewBox="0 0 227 227" fill="none" xmlns="http://www.w3.org/2000/svg">
<path d="M113.5 227C176.184 227 227 176.184 227 113.5C227 50.8157 176.184 0 113.5 0C50.8157 0 0 50.8157 0 113.5C0 176.184 50.8157 227 113.5 227Z" fill="url(#paint0_linear_5335_4)"/>
<path d="M113.5 216.387C170.323 216.387 216.387 170.323 216.387 113.5C216.387 56.6772 170.323 10.6133 113.5 10.6133C56.6772 10.6133 10.6133 56.6772 10.6133 113.5C10.6133 170.323 56.6772 216.387 113.5 216.387Z" fill="black"/>
<path d="M87.0869 52.8908L87.0425 52.8021H56.7345L56.7789 52.8908L61.4089 62.2402H91.5401L87.0869 52.8908ZM148.977 52.8021L121.017 111.69L118.492 117.007H117.65L108.71 98.2533L104.257 88.9036H74.6354L79.2769 98.2533L103.515 147.138H132.128L178.897 52.8021H148.977ZM100.125 80.2523L95.6606 70.8918H65.7069L70.3488 80.2523H100.125Z" fill="url(#paint1_linear_5335_4)"/>
<path d="M78.455 52.8908L78.4106 52.8021H48.1026L48.147 52.8908L52.777 62.2402H82.9082L78.455 52.8908ZM140.345 52.8021L112.385 111.69L109.86 117.007H109.018L100.078 98.2533L95.6252 88.9036H66.0036L70.645 98.2533L94.8831 147.138H123.496L170.265 52.8021H140.345ZM91.4933 80.2523L87.0287 70.8918H57.075L61.7169 80.2523H91.4933Z" fill="url(#paint2_linear_5335_4)"/>
<path d="M95.234 161.709L86.5919 179.14H90.7819L92.3826 175.708H99.4302V179.14H103.229V161.709H95.234ZM99.4302 171.908H94.1552L97.1397 165.506H99.4302V171.908Z" fill="url(#paint3_linear_5335_4)"/>
<path d="M75.0777 161.725L75.0695 161.709H69.4691L69.4773 161.725L70.3329 163.453H75.9005L75.0777 161.725ZM86.5138 161.709L81.3474 172.59L80.8807 173.573H80.7251L79.0733 170.107L78.2504 168.38H72.7769L73.6345 170.107L78.1133 179.14H83.4004L92.0425 161.709H86.5138ZM77.4869 166.781L76.662 165.051H71.1271L71.9848 166.781H77.4869Z" fill="url(#paint4_linear_5335_4)"/>
<path d="M120.65 163.759C121.835 165.127 122.428 167.348 122.428 170.424C122.428 173.517 121.838 175.743 120.659 177.102C119.48 178.461 117.687 179.14 115.281 179.14H106.419V161.709H115.281C117.675 161.709 119.465 162.392 120.65 163.759ZM110.493 165.981V174.868H114.352C114.853 174.905 115.356 174.831 115.824 174.649C116.292 174.467 116.714 174.183 117.059 173.818C117.65 172.785 117.961 171.615 117.961 170.424C117.961 169.234 117.65 168.064 117.059 167.031C116.714 166.666 116.292 166.382 115.824 166.2C115.356 166.018 114.853 165.944 114.352 165.981H110.493Z" fill="url(#paint5_linear_5335_4)"/>
<path d="M129.691 168.373H139.018V172.06H129.691V175.136H139.607V179.141H125.618V161.709H139.411V165.688H129.691V168.373Z" fill="url(#paint6_linear_5335_4)"/>
<path d="M159.126 179.14H154.391L151.944 173.549H147.012V179.14H142.939V161.709H153.802C155.564 161.709 156.839 162.181 157.625 163.125C158.506 164.386 158.923 165.913 158.804 167.446C158.877 168.609 158.63 169.77 158.09 170.803C157.62 171.554 156.898 172.113 156.053 172.378V172.573L159.126 179.14ZM153.953 169.155C154.215 168.758 154.338 168.286 154.302 167.812C154.339 167.342 154.216 166.873 153.953 166.482C153.809 166.329 153.632 166.211 153.435 166.137C153.239 166.063 153.028 166.035 152.819 166.054H147.012V169.594H152.819C153.029 169.614 153.241 169.585 153.438 169.508C153.635 169.432 153.811 169.311 153.953 169.155V169.155Z" fill="url(#paint7_linear_5335_4)"/>
<path d="M93.639 161.709L84.9969 179.14H89.1869L90.7876 175.708H97.8352V179.14H101.634V161.709H93.639ZM97.8352 171.908H92.5602L95.5447 165.506H97.8352V171.908Z" fill="url(#paint8_linear_5335_4)"/>
<path d="M73.4827 161.725L73.4745 161.709H67.8741L67.8823 161.725L68.7378 163.453H74.3055L73.4827 161.725ZM84.9187 161.709L79.7524 172.59L79.2857 173.573H79.1301L77.4783 170.107L76.6554 168.38H71.1819L72.0395 170.107L76.5183 179.14H81.8054L90.4475 161.709H84.9187ZM75.8919 166.781L75.0669 165.051H69.5321L70.3898 166.781H75.8919Z" fill="url(#paint9_linear_5335_4)"/>
<path d="M119.055 163.759C120.24 165.127 120.833 167.348 120.833 170.424C120.833 173.517 120.243 175.743 119.064 177.102C117.885 178.461 116.092 179.14 113.686 179.14H104.824V161.709H113.686C116.08 161.709 117.87 162.392 119.055 163.759ZM108.898 165.981V174.868H112.757C113.258 174.905 113.761 174.831 114.229 174.649C114.697 174.467 115.119 174.183 115.464 173.818C116.055 172.785 116.366 171.615 116.366 170.424C116.366 169.234 116.055 168.064 115.464 167.031C115.119 166.666 114.697 166.382 114.229 166.2C113.761 166.018 113.258 165.944 112.757 165.981H108.898Z" fill="url(#paint10_linear_5335_4)"/>
<path d="M128.096 168.373H137.423V172.06H128.096V175.136H138.012V179.141H124.023V161.709H137.816V165.688H128.096V168.373Z" fill="url(#paint11_linear_5335_4)"/>
<path d="M157.531 179.14H152.796L150.348 173.549H145.417V179.14H141.344V161.709H152.207C153.969 161.709 155.244 162.181 156.03 163.125C156.911 164.386 157.328 165.913 157.209 167.446C157.282 168.609 157.035 169.77 156.495 170.803C156.025 171.554 155.303 172.113 154.458 172.378V172.573L157.531 179.14ZM152.358 169.155C152.62 168.758 152.743 168.286 152.707 167.812C152.744 167.342 152.621 166.873 152.358 166.482C152.214 166.329 152.037 166.211 151.84 166.137C151.644 166.063 151.433 166.035 151.224 166.054H145.417V169.594H151.224C151.434 169.614 151.646 169.585 151.843 169.508C152.04 169.432 152.216 169.311 152.358 169.155Z" fill="url(#paint12_linear_5335_4)"/>
<defs>
<linearGradient id="paint0_linear_5335_4" x1="196.509" y1="36.0929" x2="30.491" y2="190.907" gradientUnits="userSpaceOnUse">
<stop stop-color="#FFC8FF"/>
<stop offset="1" stop-color="#FF9DDB"/>
</linearGradient>
<linearGradient id="paint1_linear_5335_4" x1="117.816" y1="52.8021" x2="117.816" y2="147.138" gradientUnits="userSpaceOnUse">
<stop offset="0.41899" stop-color="#26A4FE"/>
<stop offset="1" stop-color="#38E9FD"/>
</linearGradient>
<linearGradient id="paint2_linear_5335_4" x1="109.184" y1="147.138" x2="109.184" y2="52.8021" gradientUnits="userSpaceOnUse">
<stop offset="0.3" stop-color="#FF9DDB"/>
<stop offset="1" stop-color="#FFC8FF"/>
</linearGradient>
<linearGradient id="paint3_linear_5335_4" x1="1945.41" y1="3479.94" x2="1945.41" y2="3837.63" gradientUnits="userSpaceOnUse">
<stop offset="0.41899" stop-color="#26A4FE"/>
<stop offset="1" stop-color="#38E9FD"/>
</linearGradient>
<linearGradient id="paint4_linear_5335_4" x1="2215.36" y1="3479.94" x2="2215.36" y2="3837.63" gradientUnits="userSpaceOnUse">
<stop offset="0.41899" stop-color="#26A4FE"/>
<stop offset="1" stop-color="#38E9FD"/>
</linearGradient>
<linearGradient id="paint5_linear_5335_4" x1="2262.69" y1="3479.94" x2="2262.69" y2="3837.63" gradientUnits="userSpaceOnUse">
<stop offset="0.41899" stop-color="#26A4FE"/>
<stop offset="1" stop-color="#38E9FD"/>
</linearGradient>
<linearGradient id="paint6_linear_5335_4" x1="2309.48" y1="3479.97" x2="2309.48" y2="3837.67" gradientUnits="userSpaceOnUse">
<stop offset="0.41899" stop-color="#26A4FE"/>
<stop offset="1" stop-color="#38E9FD"/>
</linearGradient>
<linearGradient id="paint7_linear_5335_4" x1="3020.85" y1="3479.94" x2="3020.85" y2="3837.63" gradientUnits="userSpaceOnUse">
<stop offset="0.41899" stop-color="#26A4FE"/>
<stop offset="1" stop-color="#38E9FD"/>
</linearGradient>
<linearGradient id="paint8_linear_5335_4" x1="1912.57" y1="3837.63" x2="1912.57" y2="3479.94" gradientUnits="userSpaceOnUse">
<stop offset="0.3" stop-color="#FF9DDB"/>
<stop offset="1" stop-color="#FFC8FF"/>
</linearGradient>
<linearGradient id="paint9_linear_5335_4" x1="2171.39" y1="3837.63" x2="2171.39" y2="3479.94" gradientUnits="userSpaceOnUse">
<stop offset="0.3" stop-color="#FF9DDB"/>
<stop offset="1" stop-color="#FFC8FF"/>
</linearGradient>
<linearGradient id="paint10_linear_5335_4" x1="2231.04" y1="3837.63" x2="2231.04" y2="3479.94" gradientUnits="userSpaceOnUse">
<stop offset="0.3" stop-color="#FF9DDB"/>
<stop offset="1" stop-color="#FFC8FF"/>
</linearGradient>
<linearGradient id="paint11_linear_5335_4" x1="2281.62" y1="3837.67" x2="2281.62" y2="3479.97" gradientUnits="userSpaceOnUse">
<stop offset="0.3" stop-color="#FF9DDB"/>
<stop offset="1" stop-color="#FFC8FF"/>
</linearGradient>
<linearGradient id="paint12_linear_5335_4" x1="2988.86" y1="3837.63" x2="2988.86" y2="3479.94" gradientUnits="userSpaceOnUse">
<stop offset="0.3" stop-color="#FF9DDB"/>
<stop offset="1" stop-color="#FFC8FF"/>
</linearGradient>
</defs>
</svg>
